<svg width="19" height="19" viewBox="0 0 19 19" fill="none" xmlns="http://www.w3.org/2000/svg">
<path d="M2.59091 0C1.63227 0 0.863636 0.768636 0.863636 1.72727V5.18182C0.863636 6.14045 1.63227 6.90909 2.59091 6.90909H0V8.63636H10.3636V6.90909H7.77273C8.73136 6.90909 9.5 6.14045 9.5 5.18182V1.72727C9.5 0.768636 8.73136 0 7.77273 0H2.59091ZM2.59091 1.72727H7.77273V5.18182H2.59091V1.72727ZM11.2273 10.3636C10.2686 10.3636 9.5 11.1323 9.5 12.0909V15.5455C9.5 16.5041 10.2686 17.2727 11.2273 17.2727H8.63636V19H19V17.2727H16.4091C17.3677 17.2727 18.1364 16.5041 18.1364 15.5455V12.0909C18.1364 11.1323 17.3677 10.3636 16.4091 10.3636H11.2273ZM2.48727 10.7609L1.26091 11.9873L3.10045 13.8182L1.26091 15.6491L2.48727 16.8755L4.31818 15.0359L6.14909 16.8755L7.37545 15.6491L5.53591 13.8182L7.37545 11.9873L6.14909 10.7609L4.31818 12.6005L2.48727 10.7609ZM11.2273 12.0909H16.4091V15.5455H11.2273V12.0909Z" fill="#FF7D7D"/>
</svg>
