<svg width="22" height="21" viewBox="0 0 22 21" fill="none" xmlns="http://www.w3.org/2000/svg">
<path fill-rule="evenodd" clip-rule="evenodd" d="M10 2C5.58172 2 2 5.58172 2 10V11H0V10C0 4.47715 4.47715 0 10 0C15.5228 0 20 4.47715 20 10V11H18V10C18 5.58172 14.4183 2 10 2Z" fill="#9F9F9F"/>
<path d="M4 10H0V16C0 17.6569 1.34315 19 3 19H4C5.65685 19 7 17.6569 7 16V13C7 11.3431 5.65685 10 4 10Z" fill="white"/>
<path d="M16 10C14.3431 10 13 11.3431 13 13V16C13 17.6569 14.3431 19 16 19H17C18.6569 19 20 17.6569 20 16V10H16Z" fill="white"/>
<path fill-rule="evenodd" clip-rule="evenodd" d="M2.29289 0.292893C2.68342 -0.0976311 3.31658 -0.0976311 3.70711 0.292893L21.7071 18.2929C22.0976 18.6834 22.0976 19.3166 21.7071 19.7071C21.3166 20.0976 20.6834 20.0976 20.2929 19.7071L2.29289 1.70711C1.90237 1.31658 1.90237 0.683417 2.29289 0.292893Z" fill="#1E1E1E"/>
<path fill-rule="evenodd" clip-rule="evenodd" d="M1.29289 1.29289C1.68342 0.902369 2.31658 0.902369 2.70711 1.29289L20.7071 19.2929C21.0976 19.6834 21.0976 20.3166 20.7071 20.7071C20.3166 21.0976 19.6834 21.0976 19.2929 20.7071L1.29289 2.70711C0.902369 2.31658 0.902369 1.68342 1.29289 1.29289Z" fill="white"/>
</svg>
