<svg width="22" height="19" viewBox="0 0 22 19" fill="none" xmlns="http://www.w3.org/2000/svg">
<path d="M7.67916 16.8889H13.4319L12.9042 14.7778H8.20694L7.67916 16.8889ZM7.38889 12.6667H13.7222C15.1824 12.6667 16.4273 12.1519 17.4568 11.1224C18.4863 10.0929 19.0007 8.84837 19 7.38889C19 5.9287 18.4852 4.68385 17.4557 3.65433C16.4262 2.62481 15.1817 2.11041 13.7222 2.11111H7.38889C5.9287 2.11111 4.68385 2.62587 3.65433 3.65539C2.62481 4.68491 2.11041 5.92941 2.11111 7.38889C2.11111 8.84907 2.62587 10.0939 3.65539 11.1234C4.68491 12.153 5.92941 12.6674 7.38889 12.6667ZM10.5556 9.5C9.975 9.5 9.47783 9.29311 9.06405 8.87933C8.65028 8.46555 8.44374 7.96874 8.44444 7.38889C8.44444 6.80833 8.65133 6.31117 9.06511 5.89739C9.47889 5.48361 9.9757 5.27707 10.5556 5.27778C11.1361 5.27778 11.6333 5.48467 12.0471 5.89844C12.4608 6.31222 12.6674 6.80904 12.6667 7.38889C12.6667 7.96944 12.4598 8.46661 12.046 8.88039C11.6322 9.29417 11.1354 9.5007 10.5556 9.5ZM4.75 6.33333C5.04907 6.33333 5.29994 6.232 5.50261 6.02933C5.70528 5.82667 5.80626 5.57615 5.80555 5.27778C5.80555 4.9787 5.70422 4.72783 5.50155 4.52517C5.29889 4.3225 5.04837 4.22152 4.75 4.22222C4.45092 4.22222 4.20006 4.32356 3.99739 4.52622C3.79472 4.72889 3.69374 4.97941 3.69444 5.27778C3.69444 5.57685 3.79578 5.82772 3.99844 6.03039C4.20111 6.23306 4.45163 6.33404 4.75 6.33333ZM3.16667 19C2.86759 19 2.61672 18.8987 2.41406 18.696C2.21139 18.4933 2.11041 18.2428 2.11111 17.9444C2.11111 17.6454 2.21244 17.3945 2.41511 17.1918C2.61778 16.9892 2.8683 16.8882 3.16667 16.8889H5.51528L6.06944 14.6722C4.32778 14.3731 2.88096 13.5417 1.729 12.1779C0.577037 10.8142 0.000703704 9.21781 0 7.38889C0 5.33055 0.717074 3.58431 2.15122 2.15017C3.58537 0.716019 5.33126 -0.000703186 7.38889 5.17683e-07H13.7222C15.7806 5.17683e-07 17.5268 0.717075 18.9609 2.15122C20.3951 3.58537 21.1118 5.33126 21.1111 7.38889C21.1111 9.21852 20.5348 10.8152 19.3821 12.179C18.2294 13.5428 16.7826 14.3738 15.0417 14.6722L15.5958 16.8889H17.9444C18.2435 16.8889 18.4944 16.9902 18.6971 17.1929C18.8997 17.3956 19.0007 17.6461 19 17.9444C19 18.2435 18.8987 18.4944 18.696 18.6971C18.4933 18.8997 18.2428 19.0007 17.9444 19H3.16667ZM10.5556 11.6111C11.7167 11.6111 12.7106 11.1977 13.5375 10.3708C14.3643 9.54398 14.7778 8.55 14.7778 7.38889C14.7778 6.22778 14.3643 5.2338 13.5375 4.40694C12.7106 3.58009 11.7167 3.16667 10.5556 3.16667C9.39444 3.16667 8.40046 3.58009 7.57361 4.40694C6.74676 5.2338 6.33333 6.22778 6.33333 7.38889C6.33333 8.55 6.74676 9.54398 7.57361 10.3708C8.40046 11.1977 9.39444 11.6111 10.5556 11.6111Z" fill="#ADADAD"/>
</svg>
